<svg width="46" height="48" viewBox="0 0 46 48" fill="none" xmlns="http://www.w3.org/2000/svg">
<path opacity="0.8" d="M24.4316 17.2553L24.6484 18.9268L25.8063 17.702L33.4514 9.6149L28.1226 19.3849L27.3155 20.8646L28.9722 20.5543L39.9107 18.5054L29.857 23.2773L28.3343 24L29.857 24.7227L39.9107 29.4946L28.9722 27.4457L27.3155 27.1354L28.1226 28.6151L33.4514 38.3851L25.8063 30.298L24.6484 29.0732L24.4316 30.7447L23 41.781L21.5684 30.7447L21.3516 29.0732L20.1937 30.298L12.5486 38.3851L17.8774 28.6151L18.6845 27.1354L17.0278 27.4457L6.0893 29.4946L16.143 24.7227L17.6657 24L16.143 23.2773L6.0893 18.5054L17.0278 20.5543L18.6845 20.8646L17.8774 19.3849L12.5486 9.6149L20.1937 17.702L21.3516 18.9268L21.5684 17.2553L23 6.21904L24.4316 17.2553Z" stroke="black" stroke-width="1.6"/>
</svg>
